<svg xmlns="http://www.w3.org/2000/svg" viewBox="0 0 143.48 136.1"><defs><style>.cls-1{fill:#f15a29;}.cls-1,.cls-2,.cls-4,.cls-5,.cls-6{stroke:#231f20;stroke-miterlimit:10;stroke-width:2px;}.cls-2{fill:#fff;}.cls-3,.cls-5{fill:#231f20;}.cls-4{fill:none;}.cls-6{fill:#f15a24;}</style></defs><g id="Layer_2" data-name="Layer 2"><g id="Layer_1-2" data-name="Layer 1"><path class="cls-1" d="M17,66c1.94,23.43,2.25,45.11,0,64,28.68,5.7,56.55,7.16,73.67,1.17.06-.56.11-1.12.16-1.67C94.88,86.35,74.71,59.74,17,66Z"/><path class="cls-2" d="M1.36,22.28h67c-6.19,15.08-6.61,26-4.66,42.84C44.53,71.28,48.45,78,34.52,89.28,21.12,78.72,24.51,70,5.84,64.62,8.84,46,1.36,22.28,1.36,22.28Z"/><circle class="cls-3" cx="34.52" cy="89.28" r="5.42"/><path class="cls-1" d="M34,88.64c.91-25.95-2.75-50.5-17.16-66.36H54.13C39.93,32.74,35.08,57.87,34,88.64Z"/><path class="cls-4" d="M14,42.2s.41,6.92,3.41,6.92S20,42.2,20,42.2"/><path class="cls-4" d="M51.28,42.2s.25,6.32,3.25,6.32,3.25-6.32,3.25-6.32"/><path class="cls-1" d="M4.7,1.45C16.33,9.13,18.34,24.68,16.8,21.78H1.36A36,36,0,0,1,4.7,1.45Z"/><path class="cls-1" d="M54.13,22.28S61.34,5.67,68.42,3.17c4,5.84-.06,19.11-.06,19.11Z"/><path class="cls-5" d="M59,22.14c1.51-3.6,6.61-11.23,6.7-10.35S64.3,19.07,64,22.14Z"/><path class="cls-5" d="M7.42,11.93A19.33,19.33,0,0,0,6,21.78l6.34.13S7.64,9.8,7.42,11.93Z"/><path class="cls-4" d="M27.87,108.63A104.89,104.89,0,0,1,26.53,131"/><path class="cls-4" d="M38.2,112.45A84.75,84.75,0,0,1,37,132.28"/><path class="cls-4" d="M83.75,112.45c-10.75-2-9.9,9.42-4.39,14.67-6.57,0-10.67,2.13-11,7"/><path class="cls-6" d="M142,89.14c-2.73.89-13.27,1.52-17,9.71s-20.14,12.82-23.34,14.88-4.61,5.6-10.34,17c4.57-.12,13.73-2.91,27.23-1.16,9.58,0,16.88-11.42,17.67-15.17S144.34,88.38,142,89.14Z"/><polyline class="cls-4" points="125.38 98.04 124.36 103.28 130.87 101.37 130.87 107.03 138.2 103.2 137.69 109.06"/></g></g></svg>