<svg xmlns="http://www.w3.org/2000/svg" viewBox="0 0 95.53 65.22"><defs><style>.cls-1{fill:#fff;}</style></defs><g id="Layer_2" data-name="Layer 2"><g id="Layer_1-2" data-name="Layer 1"><path class="cls-1" d="M34.32,19.34q-1.84.19-8.75,1.68T15.44,23.36q0,1.45,0,6.11t.16,7.89c0,.83.14,1.76.3,2.77s.25,1.74.3,2.18c.26,1.58.39,2.52.39,2.83a5.56,5.56,0,0,1-.69,2.15c-.46.94-.85,1.42-1.16,1.42a1.15,1.15,0,0,1-.85-.46,2.42,2.42,0,0,1-.53-1.13,60.87,60.87,0,0,1-.93-9.63q-.33-8.12-.33-12.67l-1.28.23c-.6.11-1.11.18-1.55.23A3.35,3.35,0,0,1,7.92,25c-.48-.22-.73-.49-.73-.79a.91.91,0,0,1,.37-.8,3.35,3.35,0,0,1,.82-.43L9,22.7c1.59-.66,2.64-1.07,3.17-1.25L11.68,6.73a49.65,49.65,0,0,1-7.19.79c-1.72,0-2.91-.41-3.57-1.25A4.05,4.05,0,0,1,0,4c0-.4.29-.59.86-.59a13.63,13.63,0,0,1,1.55.46,8.06,8.06,0,0,0,2.47.46,53.64,53.64,0,0,0,6.74-.66q0-.13.06-1A3.06,3.06,0,0,1,12.28,1,2.44,2.44,0,0,1,12.87.2a1,1,0,0,1,.59-.2c.84,0,1.26.92,1.26,2.77.61-.13,2-.39,4.19-.79S23.58,1.21,26.4.86A60.7,60.7,0,0,1,33.73.33c1.67,0,2.5.33,2.5,1a5.23,5.23,0,0,1-.56,2.05c-.37.83-.8,1.25-1.28,1.25a.72.72,0,0,1-.53-.3,1.79,1.79,0,0,0-.4-.36,4.29,4.29,0,0,0-1.71-.26,73.26,73.26,0,0,0-8.16.85c-4.07.58-7,1.06-8.81,1.46l.47,14.32q3.56-.93,11-2.51a73,73,0,0,1,8.65-1.58,1.16,1.16,0,0,1,.72.16c.14.11.2.34.2.69C35.77,18.46,35.29,19.21,34.32,19.34Z"/><path class="cls-1" d="M63.43,32.54A17.47,17.47,0,0,1,58,38.31a13.69,13.69,0,0,1-8,2.41q-4.43,0-6.54-2.44a8.94,8.94,0,0,1-2.11-6.07,34.07,34.07,0,0,1,1.16-7.86A32.88,32.88,0,0,1,45.8,16c.09-.17.45-.82,1.09-2A8.27,8.27,0,0,1,49,11.45a4.12,4.12,0,0,1,2.51-.89,2.08,2.08,0,0,1,1.09.3.88.88,0,0,1,.49.76,1.85,1.85,0,0,1-.36.62l-.56.76a30.86,30.86,0,0,0-3.63,5.35A36,36,0,0,0,45.7,25a24.28,24.28,0,0,0-1,7.2q0,5.2,6.34,5.21a9.69,9.69,0,0,0,5.51-1.71,13.76,13.76,0,0,0,4.06-4.2A8.79,8.79,0,0,0,62.11,27a5.87,5.87,0,0,0-1.52-4,25.53,25.53,0,0,0-4.16-3.63,22.48,22.48,0,0,1-2.51-2.05A2.16,2.16,0,0,1,53.13,16c0-.53.37-1,1.12-1.29a6.51,6.51,0,0,1,2.64-.49,3.75,3.75,0,0,1,1.12.1.36.36,0,0,1,.27.36.94.94,0,0,1-.23.43.84.84,0,0,0-.23.5q0,.2,1.32,1.32a29.73,29.73,0,0,1,4.42,4.42,8.2,8.2,0,0,1,1.78,5.28A12.49,12.49,0,0,1,63.43,32.54Z"/><path class="cls-1" d="M91.67,35.84a16.72,16.72,0,0,1-1.38,3.07c-.53.9-1,1.35-1.52,1.35q-1.32,0-3.6-3.27t-5.71-8.87l-.79-1.32q-1.32,2.37-2.14,4t-1.62,3.6a17.54,17.54,0,0,0-1.32,3.76.82.82,0,0,0,.92.92,1.39,1.39,0,0,0,.66-.33,1.48,1.48,0,0,1,.66-.33,1,1,0,0,1,.6.2.58.58,0,0,1,.26.46q0,.41-1,1.32A12.59,12.59,0,0,1,73.49,42a4.12,4.12,0,0,1-1.95.73c-.35,0-.66-.3-.92-.89a4.67,4.67,0,0,1-.4-1.88,13.1,13.1,0,0,1,1.49-5q1.49-3.19,4.45-8.87l1.06-1.92q-1.32-2.84-3.53-7.16c-1.48-2.88-2.78-5.25-3.93-7.09a6.65,6.65,0,0,1-1-3.3,1.89,1.89,0,0,1,.17-.93.55.55,0,0,1,.49-.26,1.92,1.92,0,0,1,1.26.62,10.74,10.74,0,0,1,1.58,2.22,119.71,119.71,0,0,1,6.67,12.73l1.51-2.64c1.37-2.46,2.71-4.73,4-6.79A16.2,16.2,0,0,1,86.62,9a3.2,3.2,0,0,1,2.15-.66c1.28,0,1.91.35,1.91,1a.53.53,0,0,1-.19.43,6.46,6.46,0,0,1-.89.53,5.57,5.57,0,0,0-1.42,1.09,33.7,33.7,0,0,0-3.5,4.78q-2.39,3.66-4.49,7.56a52.47,52.47,0,0,0,3.4,5.58c1.3,1.87,2.46,3.41,3.5,4.62s1.68,1.81,1.94,1.81c.62,0,1.13-.57,1.52-1.71a8.65,8.65,0,0,1,.36-1c.16-.36.35-.53.57-.53.52,0,.79.24.79.72A8.73,8.73,0,0,1,91.67,35.84Z"/><path class="cls-1" d="M7.64,58.14h2.53a6,6,0,0,1,1,.08,2.35,2.35,0,0,1,.83.31,1.54,1.54,0,0,1,.57.59,1.83,1.83,0,0,1,.22,1,1.92,1.92,0,0,1-.65,1.56,2.91,2.91,0,0,1-1.88.53H8.15v2.93H7.64Zm.51,3.51h2.1a3.47,3.47,0,0,0,.91-.1,1.66,1.66,0,0,0,.61-.3,1.2,1.2,0,0,0,.35-.48,2,2,0,0,0,.1-.67,1.49,1.49,0,0,0-.16-.75,1.1,1.1,0,0,0-.44-.44A1.57,1.57,0,0,0,11,58.7a6.36,6.36,0,0,0-.77-.05H8.15Z"/><path class="cls-1" d="M21.45,65.09h-.56l-.69-1.84c-.07-.18-.15-.35-.23-.51a2,2,0,0,0-.29-.41,1.41,1.41,0,0,0-.37-.27,1.15,1.15,0,0,0-.5-.1H16.38v3.13h-.51v-7H19a4.6,4.6,0,0,1,.84.08,2.06,2.06,0,0,1,.73.28,1.51,1.51,0,0,1,.52.57,2,2,0,0,1,.19.91,2.22,2.22,0,0,1-.09.65,1.69,1.69,0,0,1-.26.54,1.57,1.57,0,0,1-.44.41,1.94,1.94,0,0,1-.64.24,2,2,0,0,1,.33.3,2,2,0,0,1,.22.29,3.73,3.73,0,0,1,.16.35l.17.44Zm-5.07-3.64h2.41a4.48,4.48,0,0,0,.88-.08,1.48,1.48,0,0,0,.61-.25,1,1,0,0,0,.35-.45,2,2,0,0,0,.11-.69,1.13,1.13,0,0,0-.45-1,2.4,2.4,0,0,0-1.36-.31H16.38Z"/><path class="cls-1" d="M27.59,58a3.33,3.33,0,0,1,1.31.26,3,3,0,0,1,1,.72,3.55,3.55,0,0,1,.68,1.13,4.28,4.28,0,0,1,.24,1.47,4.38,4.38,0,0,1-.24,1.48,3.42,3.42,0,0,1-.68,1.14,3.07,3.07,0,0,1-1,.75,3.51,3.51,0,0,1-2.65,0,3.23,3.23,0,0,1-1-.74,3.35,3.35,0,0,1-.67-1.15,4.07,4.07,0,0,1-.25-1.48,4.27,4.27,0,0,1,.25-1.47A3.28,3.28,0,0,1,25.23,59a3,3,0,0,1,1-.72A3.34,3.34,0,0,1,27.59,58Zm0,6.7a3,3,0,0,0,1.1-.2,2.33,2.33,0,0,0,.87-.61,2.8,2.8,0,0,0,.58-1,4.18,4.18,0,0,0,.2-1.33,3.89,3.89,0,0,0-.21-1.32,2.85,2.85,0,0,0-.57-1,2.45,2.45,0,0,0-.86-.59,3,3,0,0,0-1.09-.2,2.89,2.89,0,0,0-1.11.21,2.28,2.28,0,0,0-.87.59,2.71,2.71,0,0,0-.58,1,4.05,4.05,0,0,0-.2,1.31,4.18,4.18,0,0,0,.2,1.33,2.94,2.94,0,0,0,.57,1,2.33,2.33,0,0,0,.87.61A3,3,0,0,0,27.58,64.71Z"/><path class="cls-1" d="M39.58,61.56c0,2.36-1.17,3.53-3.51,3.53H34V58.15h2.1a3.64,3.64,0,0,1,2.64.85A3.42,3.42,0,0,1,39.58,61.56Zm-.54,0a5.07,5.07,0,0,0-.13-1.22,2.08,2.08,0,0,0-.48-.92,2.19,2.19,0,0,0-.92-.57,4.52,4.52,0,0,0-1.45-.2H34.48v5.93h1.58a4.24,4.24,0,0,0,1.44-.2,2.07,2.07,0,0,0,.92-.59,2.19,2.19,0,0,0,.48-.95A5,5,0,0,0,39,61.56Z"/><path class="cls-1" d="M45.41,65.22a3.73,3.73,0,0,1-1.07-.13,2.25,2.25,0,0,1-.73-.35,1.62,1.62,0,0,1-.46-.52,2.1,2.1,0,0,1-.26-.64,3.78,3.78,0,0,1-.12-.7c0-.24,0-.47,0-.7v-4h.51v4a5,5,0,0,0,.14,1.29,1.93,1.93,0,0,0,.42.78,1.45,1.45,0,0,0,.67.38,3.65,3.65,0,0,0,.92.1,3.71,3.71,0,0,0,.92-.1,1.36,1.36,0,0,0,.67-.38,1.81,1.81,0,0,0,.41-.78,5,5,0,0,0,.14-1.29v-4h.51v4a6.19,6.19,0,0,1-.12,1.28,2.34,2.34,0,0,1-.42,1,1.82,1.82,0,0,1-.81.59A3.5,3.5,0,0,1,45.41,65.22Z"/><path class="cls-1" d="M56.57,60a1.6,1.6,0,0,0-.26-.58,1.91,1.91,0,0,0-.47-.47,2.23,2.23,0,0,0-.66-.31,2.58,2.58,0,0,0-.8-.12,2.9,2.9,0,0,0-1.09.2,2.15,2.15,0,0,0-.84.58,2.62,2.62,0,0,0-.53,1,4.15,4.15,0,0,0-.19,1.33,4.27,4.27,0,0,0,.19,1.35,2.59,2.59,0,0,0,.53,1,2.36,2.36,0,0,0,.83.6,2.88,2.88,0,0,0,1.08.2,2.57,2.57,0,0,0,1.49-.4,1.72,1.72,0,0,0,.72-1.18h.53a2.54,2.54,0,0,1-.31.89,2.31,2.31,0,0,1-.59.65,2.53,2.53,0,0,1-.82.41,3.61,3.61,0,0,1-1,.14A3.29,3.29,0,0,1,53.05,65a2.88,2.88,0,0,1-1-.72,3.32,3.32,0,0,1-.63-1.14,4.75,4.75,0,0,1-.22-1.51,4.56,4.56,0,0,1,.22-1.48A3.06,3.06,0,0,1,52.06,59a2.65,2.65,0,0,1,1-.71A3.27,3.27,0,0,1,54.38,58a3.07,3.07,0,0,1,1.77.56,2.8,2.8,0,0,1,.61.63,2.28,2.28,0,0,1,.34.8Z"/><path class="cls-1" d="M65.08,58.65H62.65v6.44h-.51V58.65H59.73v-.51h5.35Z"/><path class="cls-1" d="M68.7,65.09h-.51v-7h.51Z"/><path class="cls-1" d="M75.31,58a3.38,3.38,0,0,1,1.32.26,3,3,0,0,1,1,.72,3.38,3.38,0,0,1,.68,1.13,4,4,0,0,1,.25,1.47,4.38,4.38,0,0,1-.24,1.48,3.42,3.42,0,0,1-.68,1.14,3.07,3.07,0,0,1-1,.75,3.39,3.39,0,0,1-1.33.26A3.43,3.43,0,0,1,74,65a3.19,3.19,0,0,1-1-.74,3.37,3.37,0,0,1-.68-1.15,4.65,4.65,0,0,1,0-3A3.3,3.3,0,0,1,73,59a3.09,3.09,0,0,1,1-.72A3.38,3.38,0,0,1,75.31,58Zm0,6.7a3.07,3.07,0,0,0,1.1-.2,2.5,2.5,0,0,0,.87-.61,2.78,2.78,0,0,0,.57-1,4.49,4.49,0,0,0,0-2.65,2.85,2.85,0,0,0-.57-1,2.49,2.49,0,0,0-.87-.59,2.94,2.94,0,0,0-1.09-.2,2.8,2.8,0,0,0-1.1.21,2.4,2.4,0,0,0-.88.59,2.85,2.85,0,0,0-.57,1,3.79,3.79,0,0,0-.21,1.31,3.91,3.91,0,0,0,.21,1.33,2.77,2.77,0,0,0,.56,1,2.5,2.5,0,0,0,.87.61A3.08,3.08,0,0,0,75.31,64.71Z"/><path class="cls-1" d="M87.06,65.09H86.4l-4.24-6.34v6.34h-.51v-7h.7l4.21,6.34V58.14h.5Z"/><path class="cls-1" d="M93,65.22a4.5,4.5,0,0,1-1.23-.15,2.72,2.72,0,0,1-.89-.42,2,2,0,0,1-.55-.67,2.42,2.42,0,0,1-.22-.88h.5a2,2,0,0,0,.29.78,1.65,1.65,0,0,0,.52.5,2.32,2.32,0,0,0,.7.26,4.43,4.43,0,0,0,.83.07,3.12,3.12,0,0,0,.84-.1,1.83,1.83,0,0,0,.63-.28,1.45,1.45,0,0,0,.41-.45,1.33,1.33,0,0,0,.14-.6,1.28,1.28,0,0,0-.12-.58,1.09,1.09,0,0,0-.41-.42,3.37,3.37,0,0,0-.75-.32c-.31-.09-.7-.18-1.16-.28a6.88,6.88,0,0,1-1-.29A2.58,2.58,0,0,1,90.9,61a1.34,1.34,0,0,1-.39-.5,1.53,1.53,0,0,1-.13-.66,1.68,1.68,0,0,1,.17-.74,1.81,1.81,0,0,1,.49-.58,2.39,2.39,0,0,1,.75-.37,3.36,3.36,0,0,1,1-.14,3.81,3.81,0,0,1,1,.13,2.38,2.38,0,0,1,.77.36,1.63,1.63,0,0,1,.54.57,1.92,1.92,0,0,1,.27.76h-.49a1.63,1.63,0,0,0-.64-.94,2.37,2.37,0,0,0-.6-.27,3.1,3.1,0,0,0-.79-.1,2.4,2.4,0,0,0-1.41.35,1.08,1.08,0,0,0-.48.94,1.13,1.13,0,0,0,.09.47,1,1,0,0,0,.3.37,2.24,2.24,0,0,0,.56.28,7.62,7.62,0,0,0,.87.23l.63.14a5.8,5.8,0,0,1,.63.16,3.83,3.83,0,0,1,.59.24,1.72,1.72,0,0,1,.49.34,1.75,1.75,0,0,1,.33.49,1.66,1.66,0,0,1,.12.66,1.74,1.74,0,0,1-.19.82,1.88,1.88,0,0,1-.52.64,2.38,2.38,0,0,1-.79.42A3.22,3.22,0,0,1,93,65.22Z"/></g></g></svg>